<svg xmlns="http://www.w3.org/2000/svg" width="805" height="600"><rect width="805" height="600" x="0" y="0" fill="#FFFFFF" id="backgorund"/><g transform="translate(10,10)" id="viz"><g id="arcs"><path d="M30,290A33.64948540268301,33.64948540268301 0,0,1 97.29897080536603,290" fill="none" stroke="gray" stroke-width="25" opacity="0.5"/><path d="M30,290A262.65581872679707,262.65581872679707 0,0,1 555.3116374535941,290" fill="none" stroke="gray" stroke-width="5" opacity="0.5"/><path d="M30,290A62.70068112119394,62.70068112119394 0,0,1 155.40136224238788,290" fill="none" stroke="gray" stroke-width="12.5" opacity="0.5"/><path d="M30,290A91.16397789930751,91.16397789930751 0,0,1 212.32795579861502,290" fill="none" stroke="gray" stroke-width="22.5" opacity="0.5"/><path d="M30,290A120.221642023729,120.221642023729 0,0,1 270.443284047458,290" fill="none" stroke="gray" stroke-width="12.5" opacity="0.5"/><path d="M30,290A143.8342287876348,143.8342287876348 0,0,1 317.6684575752696,290" fill="none" stroke="gray" stroke-width="7.5" opacity="0.5"/><path d="M30,290A161.60935756990676,161.60935756990676 0,0,1 353.2187151398135,290" fill="none" stroke="gray" stroke-width="2.5" opacity="0.5"/><path d="M30,290A284.93847696760554,284.93847696760554 0,0,1 599.8769539352111,290" fill="none" stroke="gray" stroke-width="2.5" opacity="0.5"/><path d="M30,290A182.60640534433514,182.60640534433514 0,0,1 395.2128106886703,290" fill="none" stroke="gray" stroke-width="17.5" opacity="0.5"/><path d="M30,290A202.84033218877016,202.84033218877016 0,0,1 435.6806643775403,290" fill="none" stroke="gray" stroke-width="5" opacity="0.5"/><path d="M30,290A222.02057777442798,222.02057777442798 0,0,1 474.04115554885595,290" fill="none" stroke="gray" stroke-width="30" opacity="0.5"/><path d="M30,290A242.18889464717313,242.18889464717313 0,0,1 514.3777892943463,290" fill="none" stroke="gray" stroke-width="5" opacity="0.5"/><path d="M97.29897080536603,290A33.64948540268301,33.64948540268301 0,0,1 30,290" fill="none" stroke="gray" stroke-width="25" opacity="0.5"/><path d="M97.29897080536603,290A267.43724704150407,267.43724704150407 0,0,1 632.1734648883742,290" fill="none" stroke="gray" stroke-width="5" opacity="0.5"/><path d="M97.29897080536603,290A229.00633332411405,229.00633332411405 0,0,1 555.3116374535941,290" fill="none" stroke="gray" stroke-width="10" opacity="0.5"/><path d="M97.29897080536603,290A29.051195718510925,29.051195718510925 0,0,1 155.40136224238788,290" fill="none" stroke="gray" stroke-width="7.5" opacity="0.5"/><path d="M97.29897080536603,290A57.5144924966245,57.5144924966245 0,0,1 212.32795579861502,290" fill="none" stroke="gray" stroke-width="12.5" opacity="0.5"/><path d="M97.29897080536603,290A86.57215662104599,86.57215662104599 0,0,1 270.443284047458,290" fill="none" stroke="gray" stroke-width="12.5" opacity="0.5"/><path d="M97.29897080536603,290A110.18474338495179,110.18474338495179 0,0,1 317.6684575752696,290" fill="none" stroke="gray" stroke-width="7.5" opacity="0.5"/><path d="M97.29897080536603,290A127.95987216722375,127.95987216722375 0,0,1 353.2187151398135,290" fill="none" stroke="gray" stroke-width="2.5" opacity="0.5"/><path d="M97.29897080536603,290A251.28899156492253,251.28899156492253 0,0,1 599.8769539352111,290" fill="none" stroke="gray" stroke-width="2.5" opacity="0.5"/><path d="M97.29897080536603,290A148.95691994165213,148.95691994165213 0,0,1 395.2128106886703,290" fill="none" stroke="gray" stroke-width="17.5" opacity="0.5"/><path d="M97.29897080536603,290A169.19084678608715,169.19084678608715 0,0,1 435.6806643775403,290" fill="none" stroke="gray" stroke-width="5" opacity="0.5"/><path d="M97.29897080536603,290A188.37109237174496,188.37109237174496 0,0,1 474.04115554885595,290" fill="none" stroke="gray" stroke-width="17.5" opacity="0.5"/><path d="M97.29897080536603,290A208.53940924449012,208.53940924449012 0,0,1 514.3777892943463,290" fill="none" stroke="gray" stroke-width="5" opacity="0.5"/><path d="M659.9129359145327,290A281.3069825545833,281.3069825545833 0,0,1 97.29897080536603,290" fill="none" stroke="gray" stroke-width="5" opacity="0.5"/><path d="M659.9129359145327,290A52.300649230469276,52.300649230469276 0,0,1 555.3116374535941,290" fill="none" stroke="gray" stroke-width="5" opacity="0.5"/><path d="M659.9129359145327,290A194.73482593353734,194.73482593353734 0,0,1 270.443284047458,290" fill="none" stroke="gray" stroke-width="2.5" opacity="0.5"/><path d="M659.9129359145327,290A30.017990989660802,30.017990989660802 0,0,1 599.8769539352111,290" fill="none" stroke="gray" stroke-width="2.5" opacity="0.5"/><path d="M659.9129359145327,290A132.3500626129312,132.3500626129312 0,0,1 395.2128106886703,290" fill="none" stroke="gray" stroke-width="2.5" opacity="0.5"/><path d="M659.9129359145327,290A92.93589018283836,92.93589018283836 0,0,1 474.04115554885595,290" fill="none" stroke="gray" stroke-width="2.5" opacity="0.5"/><path d="M555.3116374535941,290A262.65581872679707,262.65581872679707 0,0,1 30,290" fill="none" stroke="gray" stroke-width="5" opacity="0.5"/><path d="M555.3116374535941,290A229.00633332411405,229.00633332411405 0,0,1 97.29897080536603,290" fill="none" stroke="gray" stroke-width="10" opacity="0.5"/><path d="M555.3116374535941,290A38.43091371739001,38.43091371739001 0,0,1 632.1734648883742,290" fill="none" stroke="gray" stroke-width="5" opacity="0.5"/><path d="M555.3116374535941,290A66.1703847435486,66.1703847435486 0,0,1 687.6524069406913,290" fill="none" stroke="gray" stroke-width="2.5" opacity="0.5"/><path d="M555.3116374535941,290A171.49184082748957,171.49184082748957 0,0,1 212.32795579861502,290" fill="none" stroke="gray" stroke-width="10" opacity="0.5"/><path d="M555.3116374535941,290A142.43417670306806,142.43417670306806 0,0,1 270.443284047458,290" fill="none" stroke="gray" stroke-width="7.5" opacity="0.5"/><path d="M555.3116374535941,290A22.282658240808473,22.282658240808473 0,0,1 599.8769539352111,290" fill="none" stroke="gray" stroke-width="7.5" opacity="0.5"/><path d="M555.3116374535941,290A80.04941338246192,80.04941338246192 0,0,1 395.2128106886703,290" fill="none" stroke="gray" stroke-width="7.5" opacity="0.5"/><path d="M555.3116374535941,290A79.51483477185809,79.51483477185809 0,0,1 714.3413069973103,290" fill="none" stroke="gray" stroke-width="7.5" opacity="0.5"/><path d="M555.3116374535941,290A40.63524095236909,40.63524095236909 0,0,1 474.04115554885595,290" fill="none" stroke="gray" stroke-width="7.5" opacity="0.5"/><path d="M155.40136224238788,290A62.70068112119394,62.70068112119394 0,0,1 30,290" fill="none" stroke="gray" stroke-width="12.5" opacity="0.5"/><path d="M155.40136224238788,290A29.051195718510925,29.051195718510925 0,0,1 97.29897080536603,290" fill="none" stroke="gray" stroke-width="7.5" opacity="0.5"/><path d="M155.40136224238788,290A28.463296778113573,28.463296778113573 0,0,1 212.32795579861502,290" fill="none" stroke="gray" stroke-width="15" opacity="0.5"/><path d="M155.40136224238788,290A293.9488249657919,293.9488249657919 0,0,1 743.2990121739717,290" fill="none" stroke="gray" stroke-width="5" opacity="0.5"/><path d="M155.40136224238788,290A81.13354766644086,81.13354766644086 0,0,1 317.6684575752696,290" fill="none" stroke="gray" stroke-width="7.5" opacity="0.5"/><path d="M155.40136224238788,290A309.41574884120996,309.41574884120996 0,0,1 774.2328599248078,290" fill="none" stroke="gray" stroke-width="2.5" opacity="0.5"/><path d="M155.40136224238788,290A159.31989665323403,159.31989665323403 0,0,1 474.04115554885595,290" fill="none" stroke="gray" stroke-width="10" opacity="0.5"/><path d="M155.40136224238788,290A179.48821352597918,179.48821352597918 0,0,1 514.3777892943463,290" fill="none" stroke="gray" stroke-width="5" opacity="0.5"/><path d="M687.6524069406913,290A66.1703847435486,66.1703847435486 0,0,1 555.3116374535941,290" fill="none" stroke="gray" stroke-width="2.5" opacity="0.5"/><path d="M687.6524069406913,290A0,0 0,0,1 687.6524069406913,290" fill="none" stroke="gray" stroke-width="2.5" opacity="0.5"/><path d="M687.6524069406913,290A43.88772650274012,43.88772650274012 0,0,1 599.8769539352111,290" fill="none" stroke="gray" stroke-width="2.5" opacity="0.5"/><path d="M687.6524069406913,290A13.344450028309495,13.344450028309495 0,0,1 714.3413069973103,290" fill="none" stroke="gray" stroke-width="2.5" opacity="0.5"/><path d="M212.32795579861502,290A91.16397789930751,91.16397789930751 0,0,1 30,290" fill="none" stroke="gray" stroke-width="22.5" opacity="0.5"/><path d="M212.32795579861502,290A57.5144924966245,57.5144924966245 0,0,1 97.29897080536603,290" fill="none" stroke="gray" stroke-width="12.5" opacity="0.5"/><path d="M212.32795579861502,290A171.49184082748957,171.49184082748957 0,0,1 555.3116374535941,290" fill="none" stroke="gray" stroke-width="10" opacity="0.5"/><path d="M212.32795579861502,290A28.463296778113573,28.463296778113573 0,0,1 155.40136224238788,290" fill="none" stroke="gray" stroke-width="15" opacity="0.5"/><path d="M212.32795579861502,290A29.057664124421493,29.057664124421493 0,0,1 270.443284047458,290" fill="none" stroke="gray" stroke-width="7.5" opacity="0.5"/><path d="M212.32795579861502,290A265.48552818767837,265.48552818767837 0,0,1 743.2990121739717,290" fill="none" stroke="gray" stroke-width="5" opacity="0.5"/><path d="M212.32795579861502,290A52.67025088832729,52.67025088832729 0,0,1 317.6684575752696,290" fill="none" stroke="gray" stroke-width="7.5" opacity="0.5"/><path d="M212.32795579861502,290A193.77449906829804,193.77449906829804 0,0,1 599.8769539352111,290" fill="none" stroke="gray" stroke-width="2.5" opacity="0.5"/><path d="M212.32795579861502,290A91.44242744502763,91.44242744502763 0,0,1 395.2128106886703,290" fill="none" stroke="gray" stroke-width="5" opacity="0.5"/><path d="M212.32795579861502,290A280.9524520630964,280.9524520630964 0,0,1 774.2328599248078,290" fill="none" stroke="gray" stroke-width="5" opacity="0.5"/><path d="M212.32795579861502,290A251.00667559934766,251.00667559934766 0,0,1 714.3413069973103,290" fill="none" stroke="gray" stroke-width="2.5" opacity="0.5"/><path d="M212.32795579861502,290A130.85659987512048,130.85659987512048 0,0,1 474.04115554885595,290" fill="none" stroke="gray" stroke-width="20" opacity="0.5"/><path d="M212.32795579861502,290A151.02491674786563,151.02491674786563 0,0,1 514.3777892943463,290" fill="none" stroke="gray" stroke-width="5" opacity="0.5"/><path d="M270.443284047458,290A120.221642023729,120.221642023729 0,0,1 30,290" fill="none" stroke="gray" stroke-width="12.5" opacity="0.5"/><path d="M270.443284047458,290A86.57215662104599,86.57215662104599 0,0,1 97.29897080536603,290" fill="none" stroke="gray" stroke-width="12.5" opacity="0.5"/><path d="M270.443284047458,290A180.86509042045807,180.86509042045807 0,0,1 632.1734648883742,290" fill="none" stroke="gray" stroke-width="2.5" opacity="0.5"/><path d="M270.443284047458,290A142.43417670306806,142.43417670306806 0,0,1 555.3116374535941,290" fill="none" stroke="gray" stroke-width="7.5" opacity="0.5"/><path d="M270.443284047458,290A29.057664124421493,29.057664124421493 0,0,1 212.32795579861502,290" fill="none" stroke="gray" stroke-width="7.5" opacity="0.5"/><path d="M270.443284047458,290A41.38771554617776,41.38771554617776 0,0,1 353.2187151398135,290" fill="none" stroke="gray" stroke-width="2.5" opacity="0.5"/><path d="M270.443284047458,290A164.71683494387653,164.71683494387653 0,0,1 599.8769539352111,290" fill="none" stroke="gray" stroke-width="2.5" opacity="0.5"/><path d="M270.443284047458,290A62.38476332060614,62.38476332060614 0,0,1 395.2128106886703,290" fill="none" stroke="gray" stroke-width="12.5" opacity="0.5"/><path d="M270.443284047458,290A101.79893575069897,101.79893575069897 0,0,1 474.04115554885595,290" fill="none" stroke="gray" stroke-width="10" opacity="0.5"/><path d="M743.2990121739717,290A293.9488249657919,293.9488249657919 0,0,1 155.40136224238788,290" fill="none" stroke="gray" stroke-width="5" opacity="0.5"/><path d="M743.2990121739717,290A265.48552818767837,265.48552818767837 0,0,1 212.32795579861502,290" fill="none" stroke="gray" stroke-width="5" opacity="0.5"/><path d="M743.2990121739717,290A15.466923875418047,15.466923875418047 0,0,1 774.2328599248078,290" fill="none" stroke="gray" stroke-width="5" opacity="0.5"/><path d="M317.6684575752696,290A143.8342287876348,143.8342287876348 0,0,1 30,290" fill="none" stroke="gray" stroke-width="7.5" opacity="0.5"/><path d="M317.6684575752696,290A110.18474338495179,110.18474338495179 0,0,1 97.29897080536603,290" fill="none" stroke="gray" stroke-width="7.5" opacity="0.5"/><path d="M317.6684575752696,290A81.13354766644086,81.13354766644086 0,0,1 155.40136224238788,290" fill="none" stroke="gray" stroke-width="7.5" opacity="0.5"/><path d="M317.6684575752696,290A52.67025088832729,52.67025088832729 0,0,1 212.32795579861502,290" fill="none" stroke="gray" stroke-width="7.5" opacity="0.5"/><path d="M317.6684575752696,290A78.18634898679318,78.18634898679318 0,0,1 474.04115554885595,290" fill="none" stroke="gray" stroke-width="5" opacity="0.5"/><path d="M317.6684575752696,290A98.35466585953833,98.35466585953833 0,0,1 514.3777892943463,290" fill="none" stroke="gray" stroke-width="5" opacity="0.5"/><path d="M353.2187151398135,290A161.60935756990676,161.60935756990676 0,0,1 30,290" fill="none" stroke="gray" stroke-width="2.5" opacity="0.5"/><path d="M353.2187151398135,290A127.95987216722375,127.95987216722375 0,0,1 97.29897080536603,290" fill="none" stroke="gray" stroke-width="2.5" opacity="0.5"/><path d="M353.2187151398135,290A41.38771554617776,41.38771554617776 0,0,1 270.443284047458,290" fill="none" stroke="gray" stroke-width="2.5" opacity="0.5"/><path d="M353.2187151398135,290A20.99704777442838,20.99704777442838 0,0,1 395.2128106886703,290" fill="none" stroke="gray" stroke-width="2.5" opacity="0.5"/><path d="M353.2187151398135,290A60.411220204521214,60.411220204521214 0,0,1 474.04115554885595,290" fill="none" stroke="gray" stroke-width="2.5" opacity="0.5"/><path d="M599.8769539352111,290A284.93847696760554,284.93847696760554 0,0,1 30,290" fill="none" stroke="gray" stroke-width="2.5" opacity="0.5"/><path d="M599.8769539352111,290A251.28899156492253,251.28899156492253 0,0,1 97.29897080536603,290" fill="none" stroke="gray" stroke-width="2.5" opacity="0.5"/><path d="M599.8769539352111,290A16.14825547658154,16.14825547658154 0,0,1 632.1734648883742,290" fill="none" stroke="gray" stroke-width="2.5" opacity="0.5"/><path d="M599.8769539352111,290A22.282658240808473,22.282658240808473 0,0,1 555.3116374535941,290" fill="none" stroke="gray" stroke-width="7.5" opacity="0.5"/><path d="M599.8769539352111,290A43.88772650274012,43.88772650274012 0,0,1 687.6524069406913,290" fill="none" stroke="gray" stroke-width="2.5" opacity="0.5"/><path d="M599.8769539352111,290A193.77449906829804,193.77449906829804 0,0,1 212.32795579861502,290" fill="none" stroke="gray" stroke-width="2.5" opacity="0.5"/><path d="M599.8769539352111,290A164.71683494387653,164.71683494387653 0,0,1 270.443284047458,290" fill="none" stroke="gray" stroke-width="2.5" opacity="0.5"/><path d="M599.8769539352111,290A57.23217653104962,57.23217653104962 0,0,1 714.3413069973103,290" fill="none" stroke="gray" stroke-width="2.5" opacity="0.5"/><path d="M599.8769539352111,290A62.91789919317756,62.91789919317756 0,0,1 474.04115554885595,290" fill="none" stroke="gray" stroke-width="2.5" opacity="0.5"/><path d="M395.2128106886703,290A182.60640534433514,182.60640534433514 0,0,1 30,290" fill="none" stroke="gray" stroke-width="17.5" opacity="0.5"/><path d="M395.2128106886703,290A148.95691994165213,148.95691994165213 0,0,1 97.29897080536603,290" fill="none" stroke="gray" stroke-width="17.5" opacity="0.5"/><path d="M395.2128106886703,290A118.48032709985193,118.48032709985193 0,0,1 632.1734648883742,290" fill="none" stroke="gray" stroke-width="2.5" opacity="0.5"/><path d="M395.2128106886703,290A80.04941338246192,80.04941338246192 0,0,1 555.3116374535941,290" fill="none" stroke="gray" stroke-width="7.5" opacity="0.5"/><path d="M395.2128106886703,290A91.44242744502763,91.44242744502763 0,0,1 212.32795579861502,290" fill="none" stroke="gray" stroke-width="5" opacity="0.5"/><path d="M395.2128106886703,290A62.38476332060614,62.38476332060614 0,0,1 270.443284047458,290" fill="none" stroke="gray" stroke-width="12.5" opacity="0.5"/><path d="M395.2128106886703,290A20.99704777442838,20.99704777442838 0,0,1 353.2187151398135,290" fill="none" stroke="gray" stroke-width="2.5" opacity="0.5"/><path d="M395.2128106886703,290A20.233926844435018,20.233926844435018 0,0,1 435.6806643775403,290" fill="none" stroke="gray" stroke-width="5" opacity="0.5"/><path d="M395.2128106886703,290A39.41417243009283,39.41417243009283 0,0,1 474.04115554885595,290" fill="none" stroke="gray" stroke-width="10" opacity="0.5"/><path d="M774.2328599248078,290A309.41574884120996,309.41574884120996 0,0,1 155.40136224238788,290" fill="none" stroke="gray" stroke-width="2.5" opacity="0.5"/><path d="M774.2328599248078,290A280.9524520630964,280.9524520630964 0,0,1 212.32795579861502,290" fill="none" stroke="gray" stroke-width="5" opacity="0.5"/><path d="M774.2328599248078,290A15.466923875418047,15.466923875418047 0,0,1 743.2990121739717,290" fill="none" stroke="gray" stroke-width="5" opacity="0.5"/></g><g id="nodes"><g><circle cx="30" cy="290" r="30"/><text transform="translate(30,325) rotate(-90)" alignment-baseline="middle" font-family="Helvetica, Arial, sans-serif" font-size="12" text-anchor="end">Action</text></g><g><circle cx="97.29897080536603" cy="290" r="28.736183897702468"/><text transform="translate(97.29897080536603,323.73618389770246) rotate(-90)" alignment-baseline="middle" font-family="Helvetica, Arial, sans-serif" font-size="12" text-anchor="end">Adventure</text></g><g><circle cx="155.40136224238788" cy="290" r="20.803420631655836"/><text transform="translate(155.40136224238788,315.80342063165585) rotate(-90)" alignment-baseline="middle" font-family="Helvetica, Arial, sans-serif" font-size="12" text-anchor="end">Crime</text></g><g><circle cx="212.32795579861502" cy="290" r="27.560386016907753"/><text transform="translate(212.32795579861502,322.5603860169077) rotate(-90)" alignment-baseline="middle" font-family="Helvetica, Arial, sans-serif" font-size="12" text-anchor="end">Drama</text></g><g><circle cx="270.443284047458" cy="290" r="21.992155324271668"/><text transform="translate(270.443284047458,316.99215532427166) rotate(-90)" alignment-baseline="middle" font-family="Helvetica, Arial, sans-serif" font-size="12" text-anchor="end">Fantasy</text></g><g><circle cx="317.6684575752696" cy="290" r="16.67023129587635"/><text transform="translate(317.6684575752696,311.67023129587636) rotate(-90)" alignment-baseline="middle" font-family="Helvetica, Arial, sans-serif" font-size="12" text-anchor="end">Mysterie</text></g><g><circle cx="353.2187151398135" cy="290" r="10.317239361004065"/><text transform="translate(353.2187151398135,305.31723936100406) rotate(-90)" alignment-baseline="middle" font-family="Helvetica, Arial, sans-serif" font-size="12" text-anchor="end">Romance</text></g><g><circle cx="395.2128106886703" cy="290" r="23.114069280189156"/><text transform="translate(395.2128106886703,318.11406928018914) rotate(-90)" alignment-baseline="middle" font-family="Helvetica, Arial, sans-serif" font-size="12" text-anchor="end">Science Fiction</text></g><g><circle cx="435.6806643775403" cy="290" r="8.790997501017323"/><text transform="translate(435.6806643775403,303.79099750101733) rotate(-90)" alignment-baseline="middle" font-family="Helvetica, Arial, sans-serif" font-size="12" text-anchor="end">Space Western</text></g><g><circle cx="474.04115554885595" cy="290" r="21.00670676263472"/><text transform="translate(474.04115554885595,316.00670676263474) rotate(-90)" alignment-baseline="middle" font-family="Helvetica, Arial, sans-serif" font-size="12" text-anchor="end">Superheroe</text></g><g><circle cx="514.3777892943463" cy="290" r="10.767140075192094"/><text transform="translate(514.3777892943463,305.7671400751921) rotate(-90)" alignment-baseline="middle" font-family="Helvetica, Arial, sans-serif" font-size="12" text-anchor="end">Thriller</text></g><g><circle cx="555.3116374535941" cy="290" r="21.603921176392134"/><text transform="translate(555.3116374535941,316.60392117639213) rotate(-90)" alignment-baseline="middle" font-family="Helvetica, Arial, sans-serif" font-size="12" text-anchor="end">Comedy</text></g><g><circle cx="599.8769539352111" cy="290" r="14.398608397561336"/><text transform="translate(599.8769539352111,309.39860839756136) rotate(-90)" alignment-baseline="middle" font-family="Helvetica, Arial, sans-serif" font-size="12" text-anchor="end">Satire</text></g><g><circle cx="632.1734648883742" cy="290" r="9.335115647938174"/><text transform="translate(632.1734648883742,304.33511564793815) rotate(-90)" alignment-baseline="middle" font-family="Helvetica, Arial, sans-serif" font-size="12" text-anchor="end">Animation</text></g><g><circle cx="659.9129359145327" cy="290" r="9.841568470556854"/><text transform="translate(659.9129359145327,304.84156847055687) rotate(-90)" alignment-baseline="middle" font-family="Helvetica, Arial, sans-serif" font-size="12" text-anchor="end">Animation </text></g><g><circle cx="687.6524069406913" cy="290" r="9.335115647938174"/><text transform="translate(687.6524069406913,304.33511564793815) rotate(-90)" alignment-baseline="middle" font-family="Helvetica, Arial, sans-serif" font-size="12" text-anchor="end">Cringe</text></g><g><circle cx="714.3413069973103" cy="290" r="8.790997501017323"/><text transform="translate(714.3413069973103,303.79099750101733) rotate(-90)" alignment-baseline="middle" font-family="Helvetica, Arial, sans-serif" font-size="12" text-anchor="end">Sitcom</text></g><g><circle cx="743.2990121739717" cy="290" r="11.603920767980496"/><text transform="translate(743.2990121739717,306.60392076798047) rotate(-90)" alignment-baseline="middle" font-family="Helvetica, Arial, sans-serif" font-size="12" text-anchor="end">Mafia</text></g><g><circle cx="774.2328599248078" cy="290" r="10.767140075192094"/><text transform="translate(774.2328599248078,305.7671400751921) rotate(-90)" alignment-baseline="middle" font-family="Helvetica, Arial, sans-serif" font-size="12" text-anchor="end">Serial</text></g></g></g></svg>